<!-- Generated by IcoMoon.io -->
<svg version="1.1" xmlns="http://www.w3.org/2000/svg" width="28" height="32" viewBox="0 0 28 32">
<title>copy</title>
<path d="M27.121 4.121l-3.243-3.243c-0.563-0.563-1.326-0.879-2.121-0.879h-10.757c-1.657 0-3 1.343-3 3v3h-5c-1.657 0-3 1.343-3 3v20c0 1.657 1.343 3 3 3h14c1.657 0 3-1.343 3-3v-3h5c1.657 0 3-1.343 3-3v-16.757c0-0.796-0.316-1.559-0.879-2.121zM22 2.031v0c0.176 0.043 0.336 0.134 0.464 0.262l3.243 3.243c0.128 0.128 0.219 0.289 0.262 0.464h-3.969v-3.969zM18 29c0 0.551-0.449 1-1 1h-14c-0.551 0-1-0.449-1-1v-20c0-0.551 0.449-1 1-1h5v15c0 1.657 1.343 3 3 3h7v3zM26 23c0 0.551-0.449 1-1 1h-14c-0.551 0-1-0.449-1-1v-20c0-0.551 0.449-1 1-1h9v4.5c0 0.825 0.675 1.5 1.5 1.5h4.5v15z"></path>
</svg>
