<!-- Generated by IcoMoon.io -->
<svg version="1.1" xmlns="http://www.w3.org/2000/svg" width="40" height="32" viewBox="0 0 40 32">
<title>laptop</title>
<path d="M7 22h26c1.656 0 3-1.344 3-3v-16c0-1.656-1.344-3-3-3h-26c-1.656 0-3 1.344-3 3v16c0 1.656 1.344 3 3 3zM6 3c0-0.55 0.45-1 1-1h26c0.55 0 1 0.45 1 1v16c0 0.55-0.45 1-1 1h-26c-0.55 0-1-0.45-1-1v-16zM39.25 24h-16.375c-0.206 0-0.375 0.169-0.375 0.375v0.625c0 0.831-0.669 1.5-1.5 1.5h-2c-0.831 0-1.5-0.669-1.5-1.5v-0.625c0-0.206-0.169-0.375-0.375-0.375h-16.375c-0.412 0-0.75 0.337-0.75 0.75v4.25c0 1.656 1.344 3 3 3h34c1.656 0 3-1.344 3-3v-4.25c0-0.413-0.337-0.75-0.75-0.75zM38 29c0 0.55-0.45 1-1 1h-34c-0.55 0-1-0.45-1-1v-3h14c0 1.106 0.894 2 2 2h4c1.106 0 2-0.894 2-2h14v3z"></path>
</svg>
