<!-- Generated by IcoMoon.io -->
<svg version="1.1" xmlns="http://www.w3.org/2000/svg" width="32" height="32" viewBox="0 0 32 32">
<title>rocket</title>
<path d="M31.569 1.194c-0.081-0.381-0.381-0.681-0.762-0.762-2.012-0.431-3.587-0.431-5.156-0.431-6.45 0-10.319 3.45-13.206 8h-6.513c-1.138 0-2.175 0.644-2.681 1.656l-3.087 6.175c-0.5 1 0.225 2.169 1.344 2.169h5.944c-0.369 0.8-0.744 1.594-1.125 2.356-0.194 0.387-0.119 0.85 0.188 1.156l3.975 3.975c0.306 0.306 0.769 0.381 1.156 0.188 0.762-0.381 1.556-0.75 2.356-1.119v5.944c0 1.113 1.175 1.837 2.169 1.344l6.169-3.087c1.019-0.506 1.656-1.55 1.656-2.681v-6.525c4.538-2.894 8-6.775 8-13.194 0.006-1.575 0.006-3.15-0.425-5.162zM25 10c-1.656 0-3-1.344-3-3s1.344-3 3-3c1.656 0 3 1.344 3 3s-1.344 3-3 3z"></path>
</svg>
