<svg aria-hidden="true" style="position: absolute; width: 0; height: 0; overflow: hidden;" version="1.1" xmlns="http://www.w3.org/2000/svg" xmlns:xlink="http://www.w3.org/1999/xlink">
<defs>
<symbol id="icon-rocket" viewBox="0 0 32 32">
<title>rocket</title>
<path d="M31.569 1.194c-0.081-0.381-0.381-0.681-0.762-0.762-2.012-0.431-3.587-0.431-5.156-0.431-6.45 0-10.319 3.45-13.206 8h-6.513c-1.138 0-2.175 0.644-2.681 1.656l-3.087 6.175c-0.5 1 0.225 2.169 1.344 2.169h5.944c-0.369 0.8-0.744 1.594-1.125 2.356-0.194 0.387-0.119 0.85 0.188 1.156l3.975 3.975c0.306 0.306 0.769 0.381 1.156 0.188 0.762-0.381 1.556-0.75 2.356-1.119v5.944c0 1.113 1.175 1.837 2.169 1.344l6.169-3.087c1.019-0.506 1.656-1.55 1.656-2.681v-6.525c4.538-2.894 8-6.775 8-13.194 0.006-1.575 0.006-3.15-0.425-5.162zM25 10c-1.656 0-3-1.344-3-3s1.344-3 3-3c1.656 0 3 1.344 3 3s-1.344 3-3 3z"></path>
</symbol>
<symbol id="icon-dribble" viewBox="0 0 32 32">
<title>dribble</title>
<path d="M16 0.5c-8.547 0-15.5 6.953-15.5 15.5s6.953 15.5 15.5 15.5c8.547 0 15.5-6.953 15.5-15.5s-6.953-15.5-15.5-15.5zM26.248 7.648c1.844 2.253 2.961 5.122 2.99 8.247-0.436-0.092-4.814-0.98-9.219-0.426-0.36-0.878-0.699-1.65-1.164-2.601 4.895-1.999 7.114-4.843 7.393-5.22zM24.776 6.117c-0.238 0.339-2.231 3.018-6.939 4.782-2.169-3.986-4.574-7.261-4.94-7.75 4.198-1.012 8.623 0.079 11.879 2.968zM10.371 4.039c0.349 0.479 2.715 3.757 4.909 7.657-6.193 1.645-11.648 1.621-12.24 1.613 0.859-4.108 3.627-7.523 7.331-9.27zM2.761 16.020c0-0.135 0.003-0.27 0.007-0.405 0.579 0.012 6.995 0.095 13.607-1.884 0.379 0.742 0.741 1.495 1.073 2.247-4.787 1.348-9.137 5.22-11.283 8.894-2.115-2.347-3.404-5.452-3.404-8.852zM7.874 26.465c1.383-2.827 5.136-6.476 10.474-8.297 1.859 4.83 2.627 8.878 2.824 10.040-4.257 1.813-9.376 1.316-13.298-1.743zM23.397 26.995c-0.136-0.805-0.84-4.681-2.572-9.44 4.149-0.664 7.794 0.423 8.247 0.566-0.59 3.684-2.705 6.865-5.675 8.874z"></path>
</symbol>
<symbol id="icon-github" viewBox="0 0 31 32">
<title>github</title>
<path d="M10.369 24.837c0 0.125-0.144 0.225-0.325 0.225-0.206 0.019-0.35-0.081-0.35-0.225 0-0.125 0.144-0.225 0.325-0.225 0.188-0.019 0.35 0.081 0.35 0.225zM8.425 24.556c-0.044 0.125 0.081 0.269 0.269 0.306 0.162 0.063 0.35 0 0.387-0.125s-0.081-0.269-0.269-0.325c-0.162-0.044-0.344 0.019-0.387 0.144zM11.188 24.45c-0.181 0.044-0.306 0.163-0.287 0.306 0.019 0.125 0.181 0.206 0.369 0.163 0.181-0.044 0.306-0.163 0.287-0.288-0.019-0.119-0.188-0.2-0.369-0.181zM15.3 0.5c-8.669 0-15.3 6.581-15.3 15.25 0 6.931 4.362 12.863 10.594 14.95 0.8 0.144 1.081-0.35 1.081-0.756 0-0.387-0.019-2.525-0.019-3.837 0 0-4.375 0.938-5.294-1.863 0 0-0.713-1.819-1.737-2.288 0 0-1.431-0.981 0.1-0.962 0 0 1.556 0.125 2.412 1.613 1.369 2.413 3.662 1.719 4.556 1.306 0.144-1 0.55-1.694 1-2.106-3.494-0.387-7.019-0.894-7.019-6.906 0-1.719 0.475-2.581 1.475-3.681-0.162-0.406-0.694-2.081 0.162-4.244 1.306-0.406 4.313 1.688 4.313 1.688 1.25-0.35 2.594-0.531 3.925-0.531s2.675 0.181 3.925 0.531c0 0 3.006-2.1 4.313-1.688 0.856 2.169 0.325 3.838 0.163 4.244 1 1.106 1.613 1.969 1.613 3.681 0 6.031-3.681 6.512-7.175 6.906 0.575 0.494 1.063 1.431 1.063 2.9 0 2.106-0.019 4.712-0.019 5.225 0 0.406 0.288 0.9 1.081 0.756 6.25-2.075 10.488-8.006 10.488-14.938 0-8.669-7.031-15.25-15.7-15.25zM6.075 22.056c-0.081 0.063-0.063 0.206 0.044 0.325 0.1 0.1 0.244 0.144 0.325 0.063 0.081-0.063 0.063-0.206-0.044-0.325-0.1-0.1-0.244-0.144-0.325-0.063zM5.4 21.55c-0.044 0.081 0.019 0.181 0.144 0.244 0.1 0.063 0.225 0.044 0.269-0.044 0.044-0.081-0.019-0.181-0.144-0.244-0.125-0.038-0.225-0.019-0.269 0.044zM7.425 23.775c-0.1 0.081-0.063 0.269 0.081 0.387 0.144 0.144 0.325 0.163 0.406 0.063 0.081-0.081 0.044-0.269-0.081-0.387-0.138-0.144-0.325-0.163-0.406-0.063zM6.713 22.856c-0.1 0.063-0.1 0.225 0 0.369s0.269 0.206 0.35 0.144c0.1-0.081 0.1-0.244 0-0.387-0.088-0.144-0.25-0.206-0.35-0.125z"></path>
</symbol>
<symbol id="icon-instagram" viewBox="0 0 28 32">
<title>instagram</title>
<path d="M14.006 8.813c-3.975 0-7.181 3.206-7.181 7.181s3.206 7.181 7.181 7.181c3.975 0 7.181-3.206 7.181-7.181s-3.206-7.181-7.181-7.181zM14.006 20.663c-2.569 0-4.669-2.094-4.669-4.669s2.094-4.669 4.669-4.669c2.575 0 4.669 2.094 4.669 4.669s-2.1 4.669-4.669 4.669zM23.156 8.519c0 0.931-0.75 1.675-1.675 1.675-0.931 0-1.675-0.75-1.675-1.675s0.75-1.675 1.675-1.675c0.925 0 1.675 0.75 1.675 1.675zM27.913 10.219c-0.106-2.244-0.619-4.231-2.262-5.869-1.637-1.638-3.625-2.15-5.869-2.263-2.313-0.131-9.244-0.131-11.556 0-2.237 0.106-4.225 0.619-5.869 2.256s-2.15 3.625-2.263 5.869c-0.131 2.313-0.131 9.244 0 11.556 0.106 2.244 0.619 4.231 2.263 5.869s3.625 2.15 5.869 2.262c2.313 0.131 9.244 0.131 11.556 0 2.244-0.106 4.231-0.619 5.869-2.262 1.637-1.637 2.15-3.625 2.262-5.869 0.131-2.313 0.131-9.238 0-11.55zM24.925 24.25c-0.488 1.225-1.431 2.169-2.663 2.663-1.844 0.731-6.219 0.563-8.256 0.563s-6.419 0.163-8.256-0.563c-1.225-0.488-2.169-1.431-2.663-2.663-0.731-1.844-0.563-6.219-0.563-8.256s-0.163-6.419 0.563-8.256c0.487-1.225 1.431-2.169 2.663-2.662 1.844-0.731 6.219-0.563 8.256-0.563s6.419-0.162 8.256 0.563c1.225 0.487 2.169 1.431 2.663 2.662 0.731 1.844 0.563 6.219 0.563 8.256s0.169 6.419-0.563 8.256z"></path>
</symbol>
<symbol id="icon-facebook" viewBox="0 0 17 32">
<title>facebook</title>
<path d="M4.794 32v-14.313h-4.794v-5.688h4.794v-4.481c0-4.869 2.975-7.519 7.319-7.519 2.081 0 3.869 0.156 4.387 0.225v5.088h-3.012c-2.363 0-2.819 1.125-2.819 2.769v3.919h5.331l-0.731 5.688h-4.6v14.313z"></path>
</symbol>
<symbol id="icon-twitter" viewBox="0 0 32 32">
<title>twitter</title>
<path d="M28.711 9.482c0.020 0.284 0.020 0.569 0.020 0.853 0 8.67-6.599 18.66-18.66 18.66-3.716 0-7.168-1.076-10.071-2.944 0.528 0.061 1.036 0.081 1.584 0.081 3.066 0 5.888-1.035 8.142-2.802-2.883-0.061-5.3-1.949-6.132-4.548 0.406 0.061 0.812 0.102 1.239 0.102 0.589 0 1.178-0.081 1.726-0.223-3.005-0.609-5.259-3.249-5.259-6.437v-0.081c0.873 0.487 1.888 0.792 2.964 0.832-1.766-1.178-2.924-3.188-2.924-5.462 0-1.218 0.325-2.335 0.893-3.31 3.228 3.98 8.081 6.579 13.523 6.863-0.101-0.487-0.162-0.995-0.162-1.502 0-3.614 2.924-6.558 6.558-6.558 1.888 0 3.594 0.792 4.792 2.071 1.482-0.284 2.904-0.832 4.162-1.584-0.487 1.523-1.523 2.802-2.883 3.614 1.32-0.142 2.599-0.508 3.777-1.015-0.893 1.299-2.010 2.457-3.289 3.391z"></path>
</symbol>
<symbol id="icon-code" viewBox="0 0 36 32">
<title>code</title>
<path d="M14.281 31.988l-1.563-0.444c-0.2-0.056-0.313-0.262-0.256-0.462l8.794-30.806c0.056-0.2 0.262-0.313 0.462-0.256l1.563 0.444c0.2 0.056 0.313 0.262 0.256 0.463l-8.794 30.8c-0.056 0.2-0.269 0.319-0.463 0.262zM9.556 24.156l1.156-1.306c0.119-0.131 0.1-0.331-0.031-0.444l-7.563-6.406 7.563-6.406c0.131-0.113 0.15-0.313 0.031-0.444l-1.156-1.306c-0.113-0.131-0.313-0.144-0.444-0.025l-9.006 7.95c-0.144 0.125-0.144 0.344 0 0.469l9.006 7.95c0.131 0.113 0.331 0.1 0.444-0.031zM26.887 24.181l9.006-7.95c0.144-0.125 0.144-0.344 0-0.469l-9.006-7.944c-0.131-0.112-0.325-0.1-0.444 0.025l-1.156 1.306c-0.119 0.131-0.1 0.331 0.031 0.444l7.563 6.406-7.563 6.406c-0.131 0.113-0.15 0.313-0.031 0.444l1.156 1.306c0.113 0.131 0.313 0.144 0.444 0.025z"></path>
</symbol>
<symbol id="icon-copy" viewBox="0 0 28 32">
<title>copy</title>
<path d="M27.121 4.121l-3.243-3.243c-0.563-0.563-1.326-0.879-2.121-0.879h-10.757c-1.657 0-3 1.343-3 3v3h-5c-1.657 0-3 1.343-3 3v20c0 1.657 1.343 3 3 3h14c1.657 0 3-1.343 3-3v-3h5c1.657 0 3-1.343 3-3v-16.757c0-0.796-0.316-1.559-0.879-2.121zM22 2.031v0c0.176 0.043 0.336 0.134 0.464 0.262l3.243 3.243c0.128 0.128 0.219 0.289 0.262 0.464h-3.969v-3.969zM18 29c0 0.551-0.449 1-1 1h-14c-0.551 0-1-0.449-1-1v-20c0-0.551 0.449-1 1-1h5v15c0 1.657 1.343 3 3 3h7v3zM26 23c0 0.551-0.449 1-1 1h-14c-0.551 0-1-0.449-1-1v-20c0-0.551 0.449-1 1-1h9v4.5c0 0.825 0.675 1.5 1.5 1.5h4.5v15z"></path>
</symbol>
<symbol id="icon-laptop" viewBox="0 0 40 32">
<title>laptop</title>
<path d="M7 22h26c1.656 0 3-1.344 3-3v-16c0-1.656-1.344-3-3-3h-26c-1.656 0-3 1.344-3 3v16c0 1.656 1.344 3 3 3zM6 3c0-0.55 0.45-1 1-1h26c0.55 0 1 0.45 1 1v16c0 0.55-0.45 1-1 1h-26c-0.55 0-1-0.45-1-1v-16zM39.25 24h-16.375c-0.206 0-0.375 0.169-0.375 0.375v0.625c0 0.831-0.669 1.5-1.5 1.5h-2c-0.831 0-1.5-0.669-1.5-1.5v-0.625c0-0.206-0.169-0.375-0.375-0.375h-16.375c-0.412 0-0.75 0.337-0.75 0.75v4.25c0 1.656 1.344 3 3 3h34c1.656 0 3-1.344 3-3v-4.25c0-0.413-0.337-0.75-0.75-0.75zM38 29c0 0.55-0.45 1-1 1h-34c-0.55 0-1-0.45-1-1v-3h14c0 1.106 0.894 2 2 2h4c1.106 0 2-0.894 2-2h14v3z"></path>
</symbol>
<symbol id="icon-gem" viewBox="0 0 36 32">
<title>gem</title>
<path d="M28.981 0h-21.962c-0.263 0-0.506 0.138-0.644 0.362l-6.269 10.175c-0.169 0.275-0.138 0.631 0.075 0.875l17.25 20.325c0.3 0.35 0.837 0.35 1.137 0l17.25-20.325c0.212-0.244 0.237-0.6 0.075-0.875l-6.269-10.175c-0.137-0.225-0.381-0.362-0.644-0.362zM28.131 2.25l4.644 7.75h-5.188l-3.55-7.75h4.094zM21.563 2.25l3.55 7.75h-14.231l3.556-7.75h7.125zM7.869 2.25h4.094l-3.55 7.75h-5.188l4.644-7.75zM3.825 12h4.562l5.113 12-9.675-12zM10.825 12h14.344l-7.169 16.488-7.175-16.488zM22.5 24l5.113-12h4.562l-9.675 12z"></path>
</symbol>
<symbol id="icon-code-branch" viewBox="0 0 24 32">
<title>code-branch</title>
<path d="M24 9c0-2.763-2.238-5-5-5s-5 2.237-5 5c0 2.45 1.762 4.488 4.094 4.919-0.050 1.075-0.313 1.9-0.794 2.5-1.094 1.363-3.319 1.575-5.669 1.794-1.762 0.163-3.588 0.337-5.025 1.056-0.213 0.106-0.419 0.225-0.606 0.356v-9.725c2.281-0.463 4-2.481 4-4.9 0-2.763-2.237-5-5-5s-5 2.237-5 5c0 2.419 1.719 4.438 4 4.9v12.2c-2.281 0.462-4 2.481-4 4.9 0 2.762 2.237 5 5 5s5-2.238 5-5c0-2.306-1.556-4.244-3.681-4.825 0.313-0.6 0.769-0.913 1.188-1.125 1.094-0.55 2.656-0.7 4.306-0.856 2.662-0.25 5.419-0.506 7.044-2.531 0.775-0.969 1.188-2.219 1.238-3.794 2.238-0.494 3.906-2.488 3.906-4.869zM2 5c0-1.656 1.344-3 3-3s3 1.344 3 3c0 1.656-1.344 3-3 3s-3-1.344-3-3zM8 27c0 1.656-1.344 3-3 3s-3-1.344-3-3c0-1.65 1.337-2.994 2.987-3h0.037c1.644 0.012 2.975 1.356 2.975 3zM19.738 11.906l-0.738 0.094c-1.656 0-3-1.344-3-3s1.344-3 3-3c1.656 0 3 1.344 3 3 0 1.4-0.962 2.575-2.262 2.906z"></path>
</symbol>
<symbol id="icon-folder-open" viewBox="0 0 36 32">
<title>folder-open</title>
<path d="M32.997 14h-2.997v-3c0-1.657-1.343-3-3-3h-10l-4-4h-10c-1.657 0-3 1.343-3 3v18c0 1.657 1.343 3 3 3h24.066c1.754 0 3.383-0.921 4.287-2.428l4.216-7.029c1.196-1.993-0.239-4.543-2.572-4.543zM3 6h9.172l4 4h10.828c0.552 0 1 0.448 1 1v3h-17.301c-1.754 0-3.383 0.921-4.287 2.428l-4.411 7.352v-16.779c0-0.552 0.448-1 1-1zM33.856 17.515l-4.217 7.029c-0.542 0.904-1.519 1.457-2.572 1.456h-24.265l5.126-8.544c0.542-0.904 1.519-1.457 2.572-1.457h22.498c0.777 0 1.257 0.848 0.858 1.514z"></path>
</symbol>
<symbol id="icon-signal" viewBox="0 0 34 32">
<title>signal</title>
<path d="M0.375 24h1.25c0.206 0 0.375 0.169 0.375 0.375v7.25c0 0.206-0.169 0.375-0.375 0.375h-1.25c-0.206 0-0.375-0.169-0.375-0.375v-7.25c0-0.206 0.169-0.375 0.375-0.375zM8 21.375v10.25c0 0.206 0.169 0.375 0.375 0.375h1.25c0.206 0 0.375-0.169 0.375-0.375v-10.25c0-0.206-0.169-0.375-0.375-0.375h-1.25c-0.206 0-0.375 0.169-0.375 0.375zM16 16.375v15.25c0 0.206 0.169 0.375 0.375 0.375h1.25c0.206 0 0.375-0.169 0.375-0.375v-15.25c0-0.206-0.169-0.375-0.375-0.375h-1.25c-0.206 0-0.375 0.169-0.375 0.375zM24 9.375v22.25c0 0.206 0.169 0.375 0.375 0.375h1.25c0.206 0 0.375-0.169 0.375-0.375v-22.25c0-0.206-0.169-0.375-0.375-0.375h-1.25c-0.206 0-0.375 0.169-0.375 0.375zM32 0.375v31.25c0 0.206 0.169 0.375 0.375 0.375h1.25c0.206 0 0.375-0.169 0.375-0.375v-31.25c0-0.206-0.169-0.375-0.375-0.375h-1.25c-0.206 0-0.375 0.169-0.375 0.375z"></path>
</symbol>
</defs>
</svg>
